<svg width="74" height="70" viewBox="0 0 74 70" fill="none" xmlns="http://www.w3.org/2000/svg">
<path id="Path 2 Copy" d="M67.9999 70L73.6801 59.9467L62.1336 60.0542L67.9999 70ZM-0.00413028 1.99999C0.481919 2.002 0.967318 2.00644 1.45199 2.0134L1.48071 0.0136087C0.989089 0.00655007 0.496871 0.00204372 0.00413028 8.52346e-06L-0.00413028 1.99999ZM4.35752 2.08619C5.32832 2.12117 6.29552 2.16701 7.2585 2.22432L7.37732 0.227851C6.39819 0.169578 5.41538 0.123012 4.42954 0.0874867L4.35752 2.08619ZM10.1529 2.43292C11.12 2.5151 12.0821 2.60972 13.0385 2.71745L13.2623 0.730017C12.2872 0.620177 11.3069 0.523771 10.3223 0.440098L10.1529 2.43292ZM15.9142 3.08401C16.8747 3.22112 17.8286 3.37246 18.7753 3.53869L19.1212 1.56883C18.1527 1.39878 17.1777 1.24411 16.1968 1.10409L15.9142 3.08401ZM21.6168 4.08782C22.5643 4.28821 23.5035 4.50471 24.4338 4.73804L24.9204 2.79812C23.9651 2.55854 23.0016 2.33646 22.0306 2.1311L21.6168 4.08782ZM27.2205 5.49605C28.1473 5.76852 29.064 6.0591 29.9701 6.36854L30.6165 4.47588C29.6824 4.15685 28.7381 3.85758 27.7846 3.57726L27.2205 5.49605ZM32.6749 7.36188C33.5707 7.71483 34.4547 8.08793 35.3261 8.48193L36.1501 6.65952C35.2478 6.25162 34.3335 5.86577 33.408 5.50111L32.6749 7.36188ZM37.9144 9.73368C38.7664 10.1738 39.6049 10.6359 40.4293 11.1209L41.4434 9.39707C40.5867 8.89311 39.7161 8.4133 38.8323 7.95675L37.9144 9.73368ZM42.8601 12.6458C43.6539 13.1763 44.4328 13.7303 45.1962 14.3087L46.4041 12.7147C45.6087 12.112 44.7975 11.535 43.9714 10.983L42.8601 12.6458ZM47.4273 16.108C48.1488 16.727 48.8546 17.3706 49.5439 18.0396L50.9368 16.6044C50.2179 15.9066 49.4818 15.2355 48.7295 14.59L47.4273 16.108ZM51.5381 20.0977C52.1765 20.7982 52.7987 21.5236 53.404 22.2747L54.9613 21.0197C54.3305 20.2371 53.682 19.481 53.0164 18.7506L51.5381 20.0977ZM55.1377 24.562C55.6872 25.3333 56.2206 26.1291 56.7373 26.9501L58.43 25.8849C57.8931 25.0317 57.3384 24.2041 56.7665 23.4014L55.1377 24.562ZM58.1976 29.4195C58.6555 30.2443 59.0978 31.0923 59.5241 31.9643L61.3209 31.0859C60.8796 30.1831 60.4212 29.3043 59.9462 28.4487L58.1976 29.4195ZM60.7217 34.577C61.0947 35.4461 61.4528 36.3372 61.7956 37.2507L63.6681 36.548C63.3146 35.606 62.945 34.6862 62.5596 33.7882L60.7217 34.577ZM62.7518 39.98C63.0458 40.8809 63.3258 41.802 63.5914 42.7439L65.5163 42.2011C65.2435 41.2337 64.9557 40.2866 64.6531 39.3596L62.7518 39.98ZM64.3196 45.528C64.5427 46.4506 64.7527 47.3918 64.9493 48.3519L66.9087 47.9507C66.7074 46.968 66.4923 46.0039 66.2636 45.058L64.3196 45.528ZM65.4864 51.2168C65.6452 52.1474 65.7921 53.0947 65.9268 54.0591L67.9076 53.7824C67.7702 52.7985 67.6202 51.8312 67.4579 50.8804L65.4864 51.2168ZM66.2866 56.9357C66.3922 57.8883 66.4864 58.8567 66.5691 59.8412L68.562 59.6738C68.478 58.6721 68.382 57.686 68.2744 56.7154L66.2866 56.9357ZM66.7745 62.7146C66.8313 63.672 66.8776 64.6438 66.9132 65.6302L68.9119 65.5581C68.8757 64.5565 68.8287 63.5692 68.771 62.5961L66.7745 62.7146Z" fill="#F698AD"/>
</svg>
